# 3ds Max Wavefront OBJ Exporter v0.97b - (c)2007 guruware
# File Created: 06.02.2017 20:49:58

#
# object battery
#

v  -0.07300 0.02250 -0.02500
v  -0.07300 0.02250 -0.05700
v  -0.07300 -0.02250 -0.02500
v  -0.07300 -0.02250 -0.05700
v  -0.07050 -0.02500 -0.05700
v  -0.07050 -0.02500 -0.02500
v  -0.07227 -0.02427 -0.05700
v  -0.07227 -0.02427 -0.02500
v  0.07050 -0.02500 -0.05700
v  0.07050 -0.02500 -0.02500
v  0.07227 -0.02427 -0.02500
v  0.07227 -0.02427 -0.05700
v  0.07300 -0.02250 -0.02500
v  0.07300 -0.02250 -0.05700
v  0.07300 0.02250 -0.02500
v  0.07300 0.02250 -0.05700
v  0.07050 0.02500 -0.05700
v  0.07050 0.02500 -0.02500
v  0.07227 0.02427 -0.05700
v  0.07227 0.02427 -0.02500
v  -0.07050 0.02500 -0.02500
v  -0.07050 0.02500 -0.05700
v  -0.07227 0.02427 -0.02500
v  -0.07227 0.02427 -0.05700
# 24 vertices

vn -0.98079 0.19509 0.00000
vn -0.98079 -0.19509 0.00000
vn -0.19509 -0.98079 0.00000
vn -0.70711 -0.70711 0.00000
vn 0.19509 -0.98079 0.00000
vn 0.70711 -0.70711 0.00000
vn 0.98079 -0.19509 0.00000
vn 0.98079 0.19509 0.00000
vn 0.19509 0.98079 0.00000
vn 0.70711 0.70711 0.00000
vn -0.19509 0.98079 0.00000
vn -0.70711 0.70711 0.00000
vn 0.00000 0.00000 -1.00000
# 13 vertex normals

g battery
f 1//1 2//1 3//2 
f 3//2 2//1 4//2 
f 5//3 6//3 7//4 
f 7//4 6//3 8//4 
f 7//4 8//4 4//2 
f 4//2 8//4 3//2 
f 9//5 10//5 5//3 
f 5//3 10//5 6//3 
f 10//5 9//5 11//6 
f 11//6 9//5 12//6 
f 11//6 12//6 13//7 
f 13//7 12//6 14//7 
f 15//8 13//7 16//8 
f 16//8 13//7 14//7 
f 17//9 18//9 19//10 
f 19//10 18//9 20//10 
f 19//10 20//10 16//8 
f 16//8 20//10 15//8 
f 18//9 17//9 21//11 
f 21//11 17//9 22//11 
f 21//11 22//11 23//12 
f 23//12 22//11 24//12 
f 23//12 24//12 1//1 
f 1//1 24//12 2//1 
f 4//13 2//13 7//13 
f 7//13 2//13 24//13 
f 7//13 24//13 5//13 
f 5//13 24//13 22//13 
f 5//13 22//13 9//13 
f 9//13 22//13 17//13 
f 9//13 17//13 12//13 
f 12//13 17//13 19//13 
f 12//13 19//13 14//13 
f 14//13 19//13 16//13 
# 34 faces

