# 3ds Max Wavefront OBJ Exporter v0.97b - (c)2007 guruware
# File Created: 06.02.2017 20:48:45

#
# object top
#

v  0.11800 -0.03800 0.03000
v  -0.11266 -0.03766 0.03000
v  0.12000 -0.03800 0.03000
v  0.11446 -0.03946 0.03000
v  0.11300 -0.04300 0.03000
v  -0.00346 -0.04146 0.03000
v  -0.00700 -0.04000 0.03000
v  -0.10700 -0.04000 0.03000
v  0.12500 0.03000 0.03000
v  0.12354 0.02646 0.03000
v  0.12000 0.02500 0.03000
v  0.11800 0.02500 0.03000
v  0.11446 0.02354 0.03000
v  -0.11500 -0.03200 0.03000
v  -0.11500 0.03200 0.03000
v  0.12500 0.03300 0.03000
v  0.11300 0.02000 0.03000
v  0.11300 -0.02000 0.03000
v  0.11355 -0.02229 0.03000
v  0.11540 -0.02427 0.03000
v  0.12500 -0.03000 0.03000
v  0.12500 -0.03300 0.03000
v  0.12354 -0.03654 0.03000
v  -0.00700 0.04000 0.03000
v  0.11540 0.03873 0.03000
v  -0.10700 0.04000 0.03000
v  0.11800 0.03800 0.03000
v  -0.11266 0.03766 0.03000
v  0.12000 0.03800 0.03000
v  0.12354 0.03654 0.03000
v  -0.00200 -0.04500 0.03000
v  0.11095 -0.04795 0.03000
v  -0.00054 -0.04854 0.03000
v  0.10600 -0.05000 0.03000
v  0.00300 -0.05000 0.03000
v  0.11800 -0.02500 0.03000
v  0.12000 -0.02500 0.03000
v  0.12354 -0.02646 0.03000
v  -0.00054 0.04854 0.03000
v  0.11095 0.04795 0.03000
v  -0.00200 0.04500 0.03000
v  0.11300 0.04300 0.03000
v  -0.00273 0.04240 0.03000
v  0.11355 0.04071 0.03000
v  -0.00471 0.04055 0.03000
v  0.10600 0.05000 0.03000
v  0.00300 0.05000 0.03000
v  0.12000 -0.03800 0.03500
v  -0.11266 -0.03766 0.03500
v  0.11800 -0.03800 0.03500
v  -0.11500 -0.03200 0.03500
v  0.12354 -0.03654 0.03500
v  0.12500 -0.03300 0.03500
v  0.12500 -0.03000 0.03500
v  0.11446 -0.02354 0.03500
v  0.11300 -0.02000 0.03500
v  0.11300 0.02000 0.03500
v  0.11446 0.02354 0.03500
v  0.12500 0.03000 0.03500
v  0.12500 0.03300 0.03500
v  -0.11500 0.03200 0.03500
v  0.11446 -0.03946 0.03500
v  -0.10700 -0.04000 0.03500
v  -0.00700 -0.04000 0.03500
v  -0.00346 -0.04146 0.03500
v  0.11300 -0.04300 0.03500
v  0.11800 0.02500 0.03500
v  0.12000 0.02500 0.03500
v  0.12354 0.02646 0.03500
v  0.12354 0.03654 0.03500
v  0.12000 0.03800 0.03500
v  -0.11266 0.03766 0.03500
v  0.11800 0.03800 0.03500
v  -0.10700 0.04000 0.03500
v  0.11446 0.03946 0.03500
v  -0.00700 0.04000 0.03500
v  0.00300 -0.05000 0.03500
v  0.10600 -0.05000 0.03500
v  -0.00054 -0.04854 0.03500
v  0.11095 -0.04795 0.03500
v  -0.00200 -0.04500 0.03500
v  0.12354 -0.02646 0.03500
v  0.12000 -0.02500 0.03500
v  0.11800 -0.02500 0.03500
v  -0.00346 0.04146 0.03500
v  0.11300 0.04300 0.03500
v  -0.00200 0.04500 0.03500
v  0.11095 0.04795 0.03500
v  -0.00054 0.04854 0.03500
v  0.10600 0.05000 0.03500
v  0.00300 0.05000 0.03500
v  -0.11500 0.03200 0.00500
v  -0.11500 -0.03200 0.00500
v  0.10600 0.05000 0.00500
v  0.00300 0.05000 0.00500
v  0.00300 -0.05000 0.00500
v  0.10600 -0.05000 0.00500
v  -0.10700 -0.04000 0.00500
v  -0.00700 -0.04000 0.00500
v  -0.00700 0.04000 0.00500
v  -0.10700 0.04000 0.00500
v  -0.00200 -0.04500 0.00500
v  -0.00346 -0.04146 0.00500
v  -0.00054 -0.04854 0.00500
v  0.11300 -0.04300 0.00500
v  0.11095 -0.04795 0.00500
v  0.11300 0.04300 0.00500
v  0.11095 0.04795 0.00500
v  -0.00200 0.04500 0.00500
v  -0.00054 0.04854 0.00500
v  -0.00346 0.04146 0.03000
v  -0.00346 0.04146 0.00500
v  -0.11266 0.03766 0.00500
v  -0.11266 -0.03766 0.00500
v  -0.00700 0.04000 -0.02000
v  -0.10700 0.04000 -0.02000
v  -0.00700 0.04000 0.00000
v  -0.10700 0.04000 0.00000
v  -0.11500 0.03200 -0.02000
v  -0.11500 -0.03200 -0.02000
v  -0.11500 0.03200 0.00000
v  -0.11500 -0.03200 0.00000
v  -0.10700 -0.04000 -0.02000
v  -0.00700 -0.04000 -0.02000
v  -0.10700 -0.04000 0.00000
v  -0.00700 -0.04000 0.00000
v  0.00300 -0.05000 -0.02000
v  0.10600 -0.05000 -0.02000
v  0.00300 -0.05000 0.00000
v  0.10600 -0.05000 0.00000
v  0.10600 0.05000 -0.02000
v  0.00300 0.05000 -0.02000
v  0.10600 0.05000 0.00000
v  0.00300 0.05000 0.00000
v  -0.00346 0.04146 0.00000
v  -0.00346 0.04146 -0.02000
v  -0.00200 0.04500 0.00000
v  -0.00200 0.04500 -0.02000
v  -0.00054 0.04854 -0.02000
v  -0.00054 0.04854 0.00000
v  0.11095 0.04795 -0.02000
v  0.11095 0.04795 0.00000
v  0.11300 0.04300 -0.02000
v  0.11300 0.04300 0.00000
v  0.11300 -0.04300 -0.02000
v  0.11300 -0.04300 0.00000
v  0.11095 -0.04795 -0.02000
v  0.11095 -0.04795 0.00000
v  -0.00054 -0.04854 -0.02000
v  -0.00054 -0.04854 0.00000
v  -0.00200 -0.04500 -0.02000
v  -0.00200 -0.04500 0.00000
v  -0.00346 -0.04146 0.00000
v  -0.00346 -0.04146 -0.02000
v  -0.11266 -0.03766 -0.02000
v  -0.11266 -0.03766 0.00000
v  -0.11266 0.03766 -0.02000
v  -0.11266 0.03766 0.00000
v  0.11800 0.03800 -0.02000
v  0.12000 0.03800 -0.02000
v  0.11446 0.03946 -0.02000
v  0.12500 -0.03000 -0.02000
v  0.12354 -0.02646 -0.02000
v  0.12000 -0.02500 -0.02000
v  0.11800 -0.02500 -0.02000
v  0.11446 -0.02354 -0.02000
v  0.12500 -0.03300 -0.02000
v  0.11300 -0.02000 -0.02000
v  0.11300 0.02000 -0.02000
v  0.11355 0.02229 -0.02000
v  0.11540 0.02427 -0.02000
v  0.12500 0.03000 -0.02000
v  0.12500 0.03300 -0.02000
v  0.12354 0.03654 -0.02000
v  0.11540 -0.03873 -0.02000
v  0.11800 -0.03800 -0.02000
v  0.12000 -0.03800 -0.02000
v  0.12354 -0.03654 -0.02000
v  0.11800 0.02500 -0.02000
v  0.12000 0.02500 -0.02000
v  0.12354 0.02646 -0.02000
v  -0.00273 -0.04240 -0.02000
v  0.11355 -0.04071 -0.02000
v  -0.00471 -0.04055 -0.02000
v  0.12000 0.03800 -0.02500
v  -0.11266 0.03766 -0.02500
v  0.11800 0.03800 -0.02500
v  -0.11500 0.03200 -0.02500
v  0.12354 0.03654 -0.02500
v  0.12500 0.03300 -0.02500
v  0.12500 0.03000 -0.02500
v  0.11446 0.02354 -0.02500
v  0.11300 0.02000 -0.02500
v  0.11300 -0.02000 -0.02500
v  0.11446 -0.02354 -0.02500
v  0.12500 -0.03000 -0.02500
v  0.12500 -0.03300 -0.02500
v  -0.11500 -0.03200 -0.02500
v  0.11446 0.03946 -0.02500
v  -0.10700 0.04000 -0.02500
v  -0.00700 0.04000 -0.02500
v  -0.00346 0.04146 -0.02500
v  0.11300 0.04300 -0.02500
v  0.11800 -0.02500 -0.02500
v  0.12000 -0.02500 -0.02500
v  0.12354 -0.02646 -0.02500
v  0.12354 -0.03654 -0.02500
v  0.12000 -0.03800 -0.02500
v  -0.11266 -0.03766 -0.02500
v  0.11800 -0.03800 -0.02500
v  -0.10700 -0.04000 -0.02500
v  0.11446 -0.03946 -0.02500
v  -0.00700 -0.04000 -0.02500
v  0.00300 0.05000 -0.02500
v  0.10600 0.05000 -0.02500
v  -0.00054 0.04854 -0.02500
v  0.11095 0.04795 -0.02500
v  -0.00200 0.04500 -0.02500
v  0.12354 0.02646 -0.02500
v  0.12000 0.02500 -0.02500
v  0.11800 0.02500 -0.02500
v  -0.00346 -0.04146 -0.02500
v  0.11300 -0.04300 -0.02500
v  -0.00200 -0.04500 -0.02500
v  0.11095 -0.04795 -0.02500
v  -0.00054 -0.04854 -0.02500
v  0.10600 -0.05000 -0.02500
v  0.00300 -0.05000 -0.02500
# 228 vertices

vn 0.00000 0.00065 -1.00000
vn 0.00000 0.00000 -1.00000
vn -0.00000 0.00000 -1.00000
vn 0.00000 -0.00000 -1.00000
vn -0.00000 -0.00000 -1.00000
vn -0.00000 0.00065 -1.00000
vn 0.00000 0.00000 1.00000
vn -0.19509 -0.98079 0.00000
vn -0.98079 -0.19509 -0.00000
vn -0.70711 -0.70711 -0.00000
vn -0.70711 -0.70710 0.00000
vn -0.98079 0.19509 0.00000
vn -0.98079 0.19509 -0.00000
vn -0.19509 0.98079 0.00000
vn -0.70711 0.70710 0.00000
vn -0.15025 0.98803 -0.03502
vn -0.87299 0.48631 -0.03736
vn -0.43087 0.90065 -0.05646
vn -0.70736 0.70652 -0.02166
vn -0.93628 0.35025 -0.02656
vn -0.92388 0.38268 0.00000
vn -0.70711 0.70711 0.00000
vn 0.19509 0.98079 0.00000
vn 0.92388 0.38269 0.00000
vn 0.93970 0.34023 -0.03466
vn 0.70711 0.70711 0.00000
vn 0.70710 0.70711 0.00000
vn 0.48631 0.87299 -0.03736
vn 0.90065 0.43086 -0.05647
vn 0.70652 0.70737 -0.02166
vn 0.16080 0.98662 -0.02690
vn 0.19509 0.98078 0.00000
vn 0.98078 0.19509 0.00000
vn 0.98078 0.19510 0.00000
vn 0.98078 -0.19509 0.00000
vn 0.19509 -0.98078 0.00000
vn 0.70711 -0.70711 0.00000
vn 0.70710 -0.70711 0.00000
vn 0.98803 0.15025 -0.03502
vn 0.98078 0.19509 -0.00000
vn 0.70710 0.70711 -0.00000
vn 0.98078 -0.19510 -0.00000
vn 0.70711 -0.70711 -0.00000
vn 0.92388 -0.38269 -0.00000
vn 0.19509 -0.98079 0.00000
vn 0.70710 -0.70711 -0.00000
vn -0.92388 -0.38268 0.00000
vn -0.70711 -0.70711 0.00000
vn -0.98079 -0.19509 0.00000
vn -0.70711 0.70711 -0.00000
vn 0.00000 0.00001 -1.00000
vn -0.19509 -0.98079 -0.00000
vn -0.70711 -0.70710 -0.00000
vn -0.15025 -0.98803 0.03502
vn -0.87299 -0.48631 0.03736
vn -0.43087 -0.90065 0.05646
vn -0.70736 -0.70652 0.02166
vn -0.93628 -0.35025 0.02656
vn 0.93970 -0.34023 0.03466
vn 0.48631 -0.87299 0.03736
vn 0.90065 -0.43086 0.05647
vn 0.70652 -0.70737 0.02166
vn 0.16080 -0.98662 0.02690
vn 0.19509 -0.98078 -0.00000
vn 0.98803 -0.15025 0.03502
vn 0.19509 0.98078 -0.00000
vn 0.70711 0.70711 -0.00000
vn -0.92388 0.38268 -0.00000
# 68 vertex normals

g top
f 1//1 2//1 3//1 
f 4//2 5//2 6//2 
f 4//2 6//2 7//2 
f 4//2 7//2 8//2 
f 4//3 8//3 2//3 
f 4//3 2//3 1//3 
f 9//3 10//3 11//3 
f 9//2 11//2 12//2 
f 9//3 12//3 13//3 
f 14//2 15//2 16//2 
f 14//4 16//4 9//4 
f 14//3 9//3 13//3 
f 14//2 13//2 17//2 
f 14//2 17//2 18//2 
f 14//2 18//2 19//2 
f 14//2 19//2 20//2 
f 14//2 20//2 21//2 
f 14//2 21//2 22//2 
f 14//2 22//2 23//2 
f 14//5 23//5 3//5 
f 14//5 3//5 2//5 
f 24//5 25//5 26//5 
f 26//5 25//5 27//5 
f 26//2 27//2 28//2 
f 28//6 27//6 29//6 
f 28//2 29//2 30//2 
f 6//5 5//5 31//5 
f 31//3 5//3 32//3 
f 31//3 32//3 33//3 
f 33//2 32//2 34//2 
f 33//2 34//2 35//2 
f 20//2 36//2 21//2 
f 21//2 36//2 37//2 
f 21//2 37//2 38//2 
f 30//2 16//2 28//2 
f 28//2 16//2 15//2 
f 39//4 40//4 41//4 
f 41//2 40//2 42//2 
f 41//4 42//4 43//4 
f 43//2 42//2 44//2 
f 43//2 44//2 45//2 
f 45//2 44//2 25//2 
f 45//2 25//2 24//2 
f 46//4 40//4 47//4 
f 47//4 40//4 39//4 
f 48//7 49//7 50//7 
f 51//7 49//7 48//7 
f 51//7 48//7 52//7 
f 51//7 52//7 53//7 
f 51//7 53//7 54//7 
f 51//7 54//7 55//7 
f 51//7 55//7 56//7 
f 51//7 56//7 57//7 
f 51//7 57//7 58//7 
f 51//7 58//7 59//7 
f 51//7 59//7 60//7 
f 51//7 60//7 61//7 
f 62//7 50//7 49//7 
f 62//7 49//7 63//7 
f 62//7 63//7 64//7 
f 62//7 64//7 65//7 
f 62//7 65//7 66//7 
f 59//7 58//7 67//7 
f 59//7 67//7 68//7 
f 59//7 68//7 69//7 
f 70//7 71//7 72//7 
f 72//7 71//7 73//7 
f 72//7 73//7 74//7 
f 74//7 73//7 75//7 
f 74//7 75//7 76//7 
f 77//7 78//7 79//7 
f 79//7 78//7 80//7 
f 79//7 80//7 81//7 
f 81//7 80//7 66//7 
f 81//7 66//7 65//7 
f 82//7 83//7 54//7 
f 54//7 83//7 84//7 
f 54//7 84//7 55//7 
f 70//7 72//7 60//7 
f 60//7 72//7 61//7 
f 76//7 75//7 85//7 
f 85//7 75//7 86//7 
f 85//7 86//7 87//7 
f 87//7 86//7 88//7 
f 87//7 88//7 89//7 
f 90//7 91//7 88//7 
f 88//7 91//7 89//7 
f 8//8 7//8 63//8 
f 63//8 7//8 64//8 
f 51//9 14//9 49//10 
f 49//10 14//9 2//11 
f 49//10 2//11 63//8 
f 63//8 2//11 8//8 
f 15//12 14//9 61//13 
f 61//13 14//9 51//9 
f 74//14 26//14 72//15 
f 72//15 26//14 28//15 
f 72//15 28//15 61//13 
f 61//13 28//15 15//12 
f 24//16 26//14 76//14 
f 76//14 26//14 74//14 
f 43//17 45//18 85//19 
f 85//19 45//18 24//16 
f 85//19 24//16 76//14 
f 43//17 85//19 41//20 
f 41//20 85//19 87//21 
f 91//14 47//14 89//22 
f 89//22 47//14 39//22 
f 89//22 39//22 87//21 
f 87//21 39//22 41//20 
f 46//23 47//14 90//23 
f 90//23 47//14 91//14 
f 86//24 42//25 88//26 
f 88//26 42//25 40//27 
f 88//26 40//27 90//23 
f 90//23 40//27 46//23 
f 25//28 44//29 75//30 
f 75//30 44//29 42//25 
f 75//30 42//25 86//24 
f 25//28 75//30 27//31 
f 27//31 75//30 73//32 
f 29//32 27//31 71//32 
f 71//32 27//31 73//32 
f 60//33 16//34 70//26 
f 70//26 16//34 30//26 
f 70//26 30//26 71//32 
f 71//32 30//26 29//32 
f 9//35 16//34 59//35 
f 59//35 16//34 60//33 
f 68//36 11//36 69//37 
f 69//37 11//36 10//38 
f 69//37 10//38 59//35 
f 59//35 10//38 9//35 
f 12//36 11//36 67//36 
f 67//36 11//36 68//36 
f 67//36 58//37 12//36 
f 12//36 58//37 13//37 
f 58//37 57//35 13//37 
f 13//37 57//35 17//35 
f 18//39 17//35 56//33 
f 56//33 17//35 57//35 
f 20//28 19//29 55//30 
f 55//30 19//29 18//39 
f 55//30 18//39 56//33 
f 20//28 55//30 36//31 
f 36//31 55//30 84//32 
f 37//32 36//31 83//32 
f 83//32 36//31 84//32 
f 54//40 21//40 82//41 
f 82//41 21//40 38//26 
f 82//41 38//26 83//32 
f 83//32 38//26 37//32 
f 22//35 21//40 53//42 
f 53//42 21//40 54//40 
f 48//36 3//36 52//37 
f 52//37 3//36 23//37 
f 52//37 23//37 53//42 
f 53//42 23//37 22//35 
f 1//36 3//36 50//36 
f 50//36 3//36 48//36 
f 50//36 62//37 1//36 
f 1//36 62//37 4//43 
f 62//37 66//44 4//43 
f 4//43 66//44 5//44 
f 78//45 34//36 80//38 
f 80//38 34//36 32//46 
f 80//38 32//46 66//44 
f 66//44 32//46 5//44 
f 35//8 34//36 77//8 
f 77//8 34//36 78//45 
f 81//47 31//47 79//48 
f 79//48 31//47 33//48 
f 79//48 33//48 77//8 
f 77//8 33//48 35//8 
f 81//47 65//48 31//47 
f 31//47 65//48 6//48 
f 65//48 64//8 6//48 
f 6//48 64//8 7//8 
f 92//13 93//9 15//13 
f 15//13 93//9 14//49 
f 94//32 95//14 46//32 
f 46//32 95//14 47//14 
f 96//8 97//45 35//8 
f 35//8 97//45 34//45 
f 98//8 99//8 8//8 
f 8//8 99//8 7//8 
f 100//14 101//14 24//14 
f 24//14 101//14 26//14 
f 31//47 6//48 102//47 
f 102//47 6//48 103//48 
f 6//48 7//8 103//48 
f 103//48 7//8 99//8 
f 96//8 35//8 104//48 
f 104//48 35//8 33//48 
f 104//48 33//48 102//47 
f 102//47 33//48 31//47 
f 105//35 5//35 106//37 
f 106//37 5//35 32//37 
f 106//37 32//37 97//45 
f 97//45 32//37 34//45 
f 105//35 107//33 5//35 
f 5//35 107//33 42//33 
f 94//32 46//32 108//26 
f 108//26 46//32 40//26 
f 108//26 40//26 107//33 
f 107//33 40//26 42//33 
f 109//21 41//21 110//22 
f 110//22 41//21 39//22 
f 110//22 39//22 95//14 
f 95//14 39//22 47//14 
f 24//14 111//22 100//14 
f 100//14 111//22 112//22 
f 111//22 41//21 112//22 
f 112//22 41//21 109//21 
f 92//13 15//13 113//50 
f 113//50 15//13 28//22 
f 113//50 28//22 101//14 
f 101//14 28//22 26//14 
f 98//8 8//8 114//48 
f 114//48 8//8 2//48 
f 114//48 2//48 93//9 
f 93//9 2//48 14//49 
f 115//14 116//14 117//14 
f 117//14 116//14 118//14 
f 119//12 120//49 121//12 
f 121//12 120//49 122//49 
f 123//8 124//8 125//8 
f 125//8 124//8 126//8 
f 127//8 128//45 129//8 
f 129//8 128//45 130//45 
f 131//32 132//14 133//32 
f 133//32 132//14 134//14 
f 117//14 135//22 115//14 
f 115//14 135//22 136//22 
f 135//22 137//21 136//22 
f 136//22 137//21 138//21 
f 138//21 137//21 139//22 
f 139//22 137//21 140//22 
f 139//22 140//22 132//14 
f 132//14 140//22 134//14 
f 131//32 133//32 141//26 
f 141//26 133//32 142//27 
f 141//26 142//27 143//33 
f 143//33 142//27 144//33 
f 145//35 143//33 146//35 
f 146//35 143//33 144//33 
f 145//35 146//35 147//37 
f 147//37 146//35 148//37 
f 147//37 148//37 128//45 
f 128//45 148//37 130//45 
f 127//8 129//8 149//48 
f 149//48 129//8 150//48 
f 149//48 150//48 151//47 
f 151//47 150//48 152//47 
f 152//47 153//48 151//47 
f 151//47 153//48 154//48 
f 153//48 126//8 154//48 
f 154//48 126//8 124//8 
f 123//8 125//8 155//48 
f 155//48 125//8 156//48 
f 155//48 156//48 120//49 
f 120//49 156//48 122//49 
f 119//12 121//12 157//22 
f 157//22 121//12 158//22 
f 157//22 158//22 116//14 
f 116//14 158//22 118//14 
f 159//7 157//7 160//7 
f 161//7 143//7 136//7 
f 161//7 136//7 115//7 
f 161//7 115//7 116//7 
f 161//7 116//7 157//7 
f 161//7 157//7 159//7 
f 162//7 163//7 164//7 
f 162//7 164//7 165//7 
f 162//7 165//7 166//7 
f 119//7 120//7 167//7 
f 119//7 167//7 162//7 
f 119//7 162//7 166//7 
f 119//7 166//7 168//7 
f 119//7 168//7 169//7 
f 119//7 169//7 170//7 
f 119//7 170//7 171//7 
f 119//7 171//7 172//7 
f 119//7 172//7 173//7 
f 119//7 173//7 174//7 
f 119//7 174//7 160//7 
f 119//7 160//7 157//7 
f 124//7 175//7 123//7 
f 123//7 175//7 176//7 
f 123//7 176//7 155//7 
f 155//7 176//7 177//7 
f 155//7 177//7 178//7 
f 136//7 143//7 138//7 
f 138//7 143//7 141//7 
f 138//7 141//7 139//7 
f 139//7 141//7 131//7 
f 139//7 131//7 132//7 
f 171//7 179//7 172//7 
f 172//7 179//7 180//7 
f 172//7 180//7 181//7 
f 178//7 167//7 155//7 
f 155//7 167//7 120//7 
f 149//7 147//7 151//7 
f 151//7 147//7 145//7 
f 151//7 145//7 182//7 
f 182//7 145//7 183//7 
f 182//7 183//7 184//7 
f 184//7 183//7 175//7 
f 184//7 175//7 124//7 
f 128//7 147//7 127//7 
f 127//7 147//7 149//7 
f 185//51 186//51 187//51 
f 188//4 186//4 185//4 
f 188//2 185//2 189//2 
f 188//2 189//2 190//2 
f 188//3 190//3 191//3 
f 188//5 191//5 192//5 
f 188//2 192//2 193//2 
f 188//2 193//2 194//2 
f 188//2 194//2 195//2 
f 188//2 195//2 196//2 
f 188//2 196//2 197//2 
f 188//2 197//2 198//2 
f 199//2 187//2 186//2 
f 199//2 186//2 200//2 
f 199//2 200//2 201//2 
f 199//2 201//2 202//2 
f 199//5 202//5 203//5 
f 196//2 195//2 204//2 
f 196//2 204//2 205//2 
f 196//2 205//2 206//2 
f 207//2 208//2 209//2 
f 209//2 208//2 210//2 
f 209//2 210//2 211//2 
f 211//2 210//2 212//2 
f 211//2 212//2 213//2 
f 214//2 215//2 216//2 
f 216//2 215//2 217//2 
f 216//2 217//2 218//2 
f 218//3 217//3 203//3 
f 218//3 203//3 202//3 
f 219//4 220//4 191//4 
f 191//4 220//4 221//4 
f 191//4 221//4 192//4 
f 207//2 209//2 197//2 
f 197//2 209//2 198//2 
f 213//2 212//2 222//2 
f 222//2 212//2 223//2 
f 222//2 223//2 224//2 
f 224//3 223//3 225//3 
f 224//5 225//5 226//5 
f 227//4 228//4 225//4 
f 225//5 228//5 226//5 
f 116//14 115//14 200//14 
f 200//14 115//14 201//14 
f 188//12 119//12 186//22 
f 186//22 119//12 157//22 
f 186//22 157//22 200//14 
f 200//14 157//22 116//14 
f 120//49 119//12 198//49 
f 198//49 119//12 188//12 
f 211//52 123//52 209//53 
f 209//53 123//52 155//11 
f 209//53 155//11 198//49 
f 198//49 155//11 120//49 
f 124//54 123//52 213//8 
f 213//8 123//52 211//52 
f 182//55 184//56 222//57 
f 222//57 184//56 124//54 
f 222//57 124//54 213//8 
f 182//55 222//57 151//58 
f 151//58 222//57 224//47 
f 228//8 127//8 226//48 
f 226//48 127//8 149//48 
f 226//48 149//48 224//47 
f 224//47 149//48 151//58 
f 128//45 127//8 227//45 
f 227//45 127//8 228//8 
f 223//44 145//59 225//43 
f 225//43 145//59 147//38 
f 225//43 147//38 227//45 
f 227//45 147//38 128//45 
f 175//60 183//61 212//62 
f 212//62 183//61 145//59 
f 212//62 145//59 223//44 
f 175//60 212//62 176//63 
f 176//63 212//62 210//64 
f 177//36 176//63 208//36 
f 208//36 176//63 210//64 
f 197//35 167//42 207//37 
f 207//37 167//42 178//37 
f 207//37 178//37 208//36 
f 208//36 178//37 177//36 
f 162//40 167//42 196//40 
f 196//40 167//42 197//35 
f 205//32 164//32 206//26 
f 206//26 164//32 163//41 
f 206//26 163//41 196//40 
f 196//40 163//41 162//40 
f 165//32 164//32 204//32 
f 204//32 164//32 205//32 
f 204//32 195//26 165//32 
f 165//32 195//26 166//26 
f 195//26 194//33 166//26 
f 166//26 194//33 168//33 
f 169//65 168//33 193//35 
f 193//35 168//33 194//33 
f 171//60 170//61 192//62 
f 192//62 170//61 169//65 
f 192//62 169//65 193//35 
f 171//60 192//62 179//63 
f 179//63 192//62 221//36 
f 180//36 179//63 220//36 
f 220//36 179//63 221//36 
f 191//35 172//35 219//38 
f 219//38 172//35 181//37 
f 219//38 181//37 220//36 
f 220//36 181//37 180//36 
f 173//33 172//35 190//34 
f 190//34 172//35 191//35 
f 185//66 160//66 189//67 
f 189//67 160//66 174//26 
f 189//67 174//26 190//34 
f 190//34 174//26 173//33 
f 159//32 160//66 187//32 
f 187//32 160//66 185//66 
f 187//32 199//26 159//32 
f 159//32 199//26 161//26 
f 199//26 203//24 161//26 
f 161//26 203//24 143//24 
f 215//23 131//32 217//27 
f 217//27 131//32 141//27 
f 217//27 141//27 203//24 
f 203//24 141//27 143//24 
f 132//14 131//32 214//14 
f 214//14 131//32 215//23 
f 218//68 138//68 216//50 
f 216//50 138//68 139//22 
f 216//50 139//22 214//14 
f 214//14 139//22 132//14 
f 218//68 202//50 138//68 
f 138//68 202//50 136//22 
f 202//50 201//14 136//22 
f 136//22 201//14 115//14 
# 444 faces

