# 3ds Max Wavefront OBJ Exporter v0.97b - (c)2007 guruware
# File Created: 06.02.2017 20:50:49

#
# object motor
#

v  0.00351 -0.00192 0.03900
v  -0.00192 -0.00351 0.03900
v  0.00113 -0.00384 0.03900
v  -0.00384 -0.00113 0.03900
v  0.00384 0.00113 0.03900
v  -0.00351 0.00192 0.03900
v  0.00192 0.00351 0.03900
v  -0.00113 0.00384 0.03900
v  -0.00384 -0.00113 0.03200
v  -0.00351 0.00192 0.03200
v  -0.01177 0.00221 0.03200
v  -0.00113 0.00384 0.03200
v  -0.00822 0.00871 0.03200
v  0.00192 0.00351 0.03200
v  -0.00153 0.01188 0.03200
v  0.01083 0.00513 0.03200
v  0.00574 0.01051 0.03200
v  0.00113 -0.00384 0.03200
v  0.00153 -0.01188 0.03200
v  0.00822 -0.00871 0.03200
v  -0.00574 -0.01051 0.03200
v  -0.00192 -0.00351 0.03200
v  -0.01083 -0.00513 0.03200
v  0.00384 0.00113 0.03200
v  0.00351 -0.00192 0.03200
v  0.01177 -0.00221 0.03200
v  0.00676 0.01237 0.00300
v  0.01274 0.00604 0.00300
v  0.01708 0.01041 0.00300
v  0.00959 0.01755 0.00300
v  -0.00047 0.01999 0.00300
v  -0.00180 0.01398 0.00300
v  -0.01708 -0.01041 0.00300
v  -0.00959 -0.01755 0.00300
v  -0.00676 -0.01237 0.00300
v  0.00047 -0.01999 0.00300
v  0.00180 -0.01398 0.00300
v  -0.01386 0.00261 0.00300
v  -0.01999 -0.00047 0.00300
v  -0.01274 -0.00604 0.00300
v  -0.01041 0.01708 0.00300
v  -0.01755 0.00959 0.00300
v  -0.00968 0.01025 0.00300
v  0.01041 -0.01708 0.00300
v  0.01755 -0.00959 0.00300
v  0.00968 -0.01025 0.00300
v  0.01999 0.00047 0.00300
v  0.01386 -0.00261 0.00300
v  -0.00959 -0.01755 0.00000
v  0.01041 -0.01708 0.00000
v  0.00047 -0.01999 0.00000
v  0.01755 -0.00959 0.00000
v  -0.01708 -0.01041 0.00000
v  0.01999 0.00047 0.00000
v  -0.01999 -0.00047 0.00000
v  0.01708 0.01041 0.00000
v  -0.01755 0.00959 0.00000
v  0.00959 0.01755 0.00000
v  -0.01041 0.01708 0.00000
v  -0.00047 0.01999 0.00000
v  -0.00676 -0.01237 0.02988
v  -0.01274 -0.00604 0.02988
v  -0.01386 0.00261 0.02988
v  -0.00968 0.01025 0.02988
v  -0.00180 0.01398 0.02988
v  0.00676 0.01237 0.02988
v  0.01274 0.00604 0.02988
v  0.01386 -0.00261 0.02988
v  0.00968 -0.01025 0.02988
v  0.00180 -0.01398 0.02988
# 70 vertices

vn 0.00000 0.00000 1.00000
vn 0.00000 0.00000 -1.00000
vn 0.47943 0.87758 0.00000
vn -0.28154 0.95955 0.00000
vn -0.87758 0.47943 0.00000
vn -0.95955 -0.28154 0.00000
vn -0.47943 -0.87758 0.00000
vn -0.33901 -0.62054 0.70711
vn -0.63901 -0.30277 0.70711
vn -0.69493 0.13065 0.70711
vn -0.48541 0.51417 0.70711
vn -0.09049 0.70129 0.70711
vn 0.33901 0.62054 0.70711
vn 0.47943 0.87758 -0.00000
vn -0.12797 0.99178 0.00000
vn -0.68648 0.72715 0.00000
vn -0.68648 0.72715 -0.00000
vn -0.98278 0.18477 -0.00000
vn -0.90369 -0.42818 -0.00000
vn -0.90369 -0.42818 0.00000
vn -0.02360 0.99972 0.00000
vn -0.52030 0.85399 0.00000
vn -0.99972 -0.02360 -0.00000
vn -0.85399 -0.52030 -0.00000
vn -0.85399 -0.52030 0.00000
vn 0.28154 -0.95955 -0.00000
vn 0.87758 -0.47943 -0.00000
vn 0.87758 -0.47943 0.00000
vn 0.95955 0.28154 0.00000
vn 0.63901 0.30277 0.70711
vn 0.69493 -0.13065 0.70711
vn 0.48541 -0.51417 0.70711
vn 0.09049 -0.70129 0.70711
vn 0.12797 -0.99178 0.00000
vn 0.68648 -0.72715 0.00000
vn 0.98278 -0.18477 0.00000
vn 0.98278 -0.18477 -0.00000
vn 0.90369 0.42818 -0.00000
vn 0.02360 -0.99972 0.00000
vn 0.52030 -0.85399 0.00000
vn 0.99972 0.02360 0.00000
vn 0.85399 0.52030 0.00000
# 42 vertex normals

g motor
f 1//1 2//1 3//1 
f 2//1 1//1 4//1 
f 4//1 1//1 5//1 
f 4//1 5//1 6//1 
f 6//1 5//1 7//1 
f 6//1 7//1 8//1 
f 9//1 10//1 11//1 
f 11//1 10//1 12//1 
f 11//1 12//1 13//1 
f 13//1 12//1 14//1 
f 13//1 14//1 15//1 
f 15//1 14//1 16//1 
f 15//1 16//1 17//1 
f 18//1 19//1 20//1 
f 19//1 18//1 21//1 
f 21//1 18//1 22//1 
f 21//1 22//1 23//1 
f 23//1 22//1 9//1 
f 23//1 9//1 11//1 
f 14//1 24//1 16//1 
f 16//1 24//1 25//1 
f 16//1 25//1 26//1 
f 26//1 25//1 18//1 
f 26//1 18//1 20//1 
f 27//1 28//1 29//1 
f 27//1 29//1 30//1 
f 27//1 30//1 31//1 
f 27//1 31//1 32//1 
f 33//1 34//1 35//1 
f 35//1 34//1 36//1 
f 35//1 36//1 37//1 
f 38//1 39//1 40//1 
f 40//1 39//1 33//1 
f 40//1 33//1 35//1 
f 31//1 41//1 32//1 
f 32//1 41//1 42//1 
f 32//1 42//1 43//1 
f 43//1 42//1 39//1 
f 43//1 39//1 38//1 
f 36//1 44//1 37//1 
f 37//1 44//1 45//1 
f 37//1 45//1 46//1 
f 46//1 45//1 47//1 
f 46//1 47//1 48//1 
f 48//1 47//1 29//1 
f 48//1 29//1 28//1 
f 49//2 50//2 51//2 
f 50//2 49//2 52//2 
f 52//2 49//2 53//2 
f 52//2 53//2 54//2 
f 54//2 53//2 55//2 
f 54//2 55//2 56//2 
f 56//2 55//2 57//2 
f 56//2 57//2 58//2 
f 58//2 57//2 59//2 
f 58//2 59//2 60//2 
f 7//3 14//3 8//4 
f 8//4 14//3 12//4 
f 8//4 12//4 6//5 
f 6//5 12//4 10//5 
f 6//5 10//5 4//6 
f 4//6 10//5 9//6 
f 4//6 9//6 2//7 
f 2//7 9//6 22//7 
f 61//8 21//8 62//9 
f 62//9 21//8 23//9 
f 62//9 23//9 63//10 
f 63//10 23//9 11//10 
f 63//10 11//10 64//11 
f 64//11 11//10 13//11 
f 64//11 13//11 65//12 
f 65//12 13//11 15//12 
f 65//12 15//12 66//13 
f 66//13 15//12 17//13 
f 66//14 27//3 65//15 
f 65//15 27//3 32//15 
f 65//15 32//15 64//16 
f 64//16 32//15 43//17 
f 64//16 43//17 63//18 
f 63//18 43//17 38//18 
f 63//18 38//18 62//19 
f 62//19 38//18 40//20 
f 62//19 40//20 61//7 
f 61//7 40//20 35//7 
f 30//3 58//3 31//21 
f 31//21 58//3 60//21 
f 31//21 60//21 41//22 
f 41//22 60//21 59//22 
f 41//22 59//22 42//5 
f 42//5 59//22 57//5 
f 42//5 57//5 39//23 
f 39//23 57//5 55//23 
f 39//23 55//23 33//24 
f 33//24 55//23 53//25 
f 33//24 53//25 34//7 
f 34//7 53//25 49//7 
f 2//7 22//7 3//26 
f 3//26 22//7 18//26 
f 3//26 18//26 1//27 
f 1//27 18//26 25//28 
f 1//27 25//28 5//29 
f 5//29 25//28 24//29 
f 5//29 24//29 7//3 
f 7//3 24//29 14//3 
f 66//13 17//13 67//30 
f 67//30 17//13 16//30 
f 67//30 16//30 68//31 
f 68//31 16//30 26//31 
f 68//31 26//31 69//32 
f 69//32 26//31 20//32 
f 69//32 20//32 70//33 
f 70//33 20//32 19//33 
f 70//33 19//33 61//8 
f 61//8 19//33 21//8 
f 61//7 35//7 70//34 
f 70//34 35//7 37//34 
f 70//34 37//34 69//35 
f 69//35 37//34 46//35 
f 69//35 46//35 68//36 
f 68//36 46//35 48//37 
f 68//36 48//37 67//38 
f 67//38 48//37 28//38 
f 67//38 28//38 66//14 
f 66//14 28//38 27//3 
f 34//7 49//7 36//39 
f 36//39 49//7 51//39 
f 36//39 51//39 44//40 
f 44//40 51//39 50//40 
f 44//40 50//40 45//28 
f 45//28 50//40 52//28 
f 45//28 52//28 47//41 
f 47//41 52//28 54//41 
f 47//41 54//41 29//42 
f 29//42 54//41 56//42 
f 29//42 56//42 30//3 
f 30//3 56//42 58//3 
# 136 faces

