# 3ds Max Wavefront OBJ Exporter v0.97b - (c)2007 guruware
# File Created: 06.02.2017 20:49:43

#
# object hat
#

v  0.04525 -0.02200 0.03500
v  0.04525 0.02200 0.03500
v  0.04525 0.02200 0.04300
v  0.04525 0.01600 0.04300
v  0.04525 -0.01600 0.04300
v  0.04525 -0.02200 0.04300
v  0.04525 -0.01600 0.06500
v  0.04525 0.01600 0.06500
v  -0.04525 0.02200 0.03500
v  -0.04525 -0.02200 0.03500
v  -0.04525 -0.02200 0.04300
v  -0.04525 -0.01600 0.04300
v  -0.04525 0.01600 0.04300
v  -0.04525 0.02200 0.04300
v  -0.04525 0.01600 0.06500
v  -0.04525 -0.01600 0.06500
v  -0.04050 -0.02675 0.03500
v  0.04050 -0.02675 0.03500
v  0.04050 -0.02675 0.04300
v  0.03450 -0.02675 0.04300
v  -0.03450 -0.02675 0.04300
v  -0.04050 -0.02675 0.04300
v  -0.03450 -0.02675 0.06500
v  0.03450 -0.02675 0.06500
v  0.04050 0.02675 0.03500
v  -0.04050 0.02675 0.03500
v  -0.04050 0.02675 0.04300
v  -0.03450 0.02675 0.04300
v  0.03450 0.02675 0.04300
v  0.04050 0.02675 0.04300
v  0.03450 0.02675 0.06500
v  -0.03450 0.02675 0.06500
v  0.04386 -0.02536 0.03500
v  0.04386 -0.02536 0.04300
v  0.04386 0.02536 0.03500
v  0.04386 0.02536 0.04300
v  -0.04386 0.02536 0.03500
v  -0.04386 0.02536 0.04300
v  -0.04386 -0.02536 0.04300
v  -0.03750 -0.02375 0.04300
v  -0.03750 -0.02200 0.04300
v  -0.03797 -0.02039 0.04300
v  -0.03922 -0.01929 0.04300
v  -0.04050 -0.01900 0.04300
v  -0.04225 -0.01900 0.04300
v  -0.04437 -0.01812 0.04300
v  -0.03662 -0.02587 0.04300
v  0.04437 -0.01812 0.04300
v  0.04225 -0.01900 0.04300
v  0.04050 -0.01900 0.04300
v  0.03838 -0.01988 0.04300
v  0.03750 -0.02200 0.04300
v  0.03750 -0.02375 0.04300
v  0.03662 -0.02587 0.04300
v  -0.04492 0.01737 0.04300
v  -0.04400 0.01843 0.04300
v  -0.04225 0.01900 0.04300
v  -0.03807 0.02025 0.04300
v  -0.03750 0.02200 0.04300
v  -0.03750 0.02375 0.04300
v  -0.03717 0.02512 0.04300
v  -0.03625 0.02618 0.04300
v  -0.03913 0.01933 0.04300
v  -0.04050 0.01900 0.04300
v  0.04050 -0.01900 0.06500
v  0.03838 -0.01988 0.06500
v  0.03750 -0.02200 0.06500
v  0.03750 -0.02375 0.06500
v  0.03662 -0.02587 0.06500
v  -0.03750 -0.02375 0.06500
v  -0.03662 -0.02587 0.06500
v  -0.03750 -0.02200 0.06400
v  -0.03750 -0.02200 0.06500
v  -0.03838 -0.01988 0.06500
v  -0.04050 -0.01900 0.06400
v  -0.04050 -0.01900 0.06500
v  -0.04225 -0.01900 0.06500
v  -0.04437 -0.01812 0.06500
v  -0.04225 0.01900 0.06500
v  -0.04437 0.01812 0.06500
v  -0.04050 0.01900 0.06425
v  -0.04050 0.01900 0.06500
v  -0.03838 0.01988 0.06500
v  -0.03750 0.02200 0.06500
v  -0.03750 0.02200 0.06425
v  -0.03750 0.02375 0.06500
v  0.04225 -0.01900 0.06500
v  0.04437 -0.01812 0.06500
v  -0.03662 0.02587 0.06500
v  0.03838 0.01988 0.06500
v  0.04050 0.01900 0.06500
v  0.04050 0.01900 0.06400
v  0.03750 0.02200 0.06400
v  0.03838 0.01988 0.04300
v  0.03750 0.02200 0.04300
v  0.04050 0.01900 0.04300
v  0.03750 0.02200 0.06500
v  0.04225 0.01900 0.04300
v  0.04225 0.01900 0.06500
v  0.04437 0.01812 0.06500
v  0.04437 0.01812 0.04300
v  0.03750 0.02375 0.04300
v  0.03750 0.02375 0.06500
v  0.03662 0.02587 0.06500
v  0.03662 0.02587 0.04300
v  -0.04386 -0.02536 0.03500
# 106 vertices

vn 1.00000 0.00000 0.00000
vn 1.00000 0.00000 -0.00000
vn 1.00000 -0.00000 0.00000
vn 0.98079 -0.19509 -0.00000
vn 0.98079 0.19509 0.00000
vn 0.98078 -0.19509 0.00000
vn -1.00000 0.00000 0.00000
vn -0.99301 0.11801 0.00000
vn -0.98079 -0.19509 0.00000
vn -0.98139 0.19199 0.00486
vn 0.00000 -1.00000 0.00000
vn -0.19509 -0.98079 0.00000
vn 0.19509 -0.98079 -0.00000
vn 0.19509 -0.98079 0.00000
vn 0.00000 1.00000 0.00000
vn -0.00000 1.00000 -0.00000
vn 0.19509 0.98079 0.00000
vn -0.15536 0.98786 0.00000
vn -0.19299 0.98120 0.00326
vn 0.92388 -0.38268 0.00000
vn 0.70711 -0.70711 0.00000
vn 0.38268 -0.92388 0.00000
vn 0.38268 0.92388 0.00000
vn 0.70711 0.70711 0.00000
vn 0.92388 0.38268 0.00000
vn -0.92388 0.38268 0.00000
vn -0.70711 0.70711 0.00000
vn -0.38268 0.92388 0.00000
vn -0.00000 -0.00000 1.00000
vn 0.00000 0.00000 1.00000
vn 0.00000 -0.00000 1.00000
vn -0.00000 0.00000 1.00000
vn 0.00000 -0.00001 1.00000
vn 0.70711 -0.70711 -0.00000
vn 0.98079 -0.19509 0.00000
vn -0.70711 -0.70711 0.00000
vn -0.99002 -0.14095 0.00000
vn -0.98129 -0.19249 -0.00405
vn -0.45231 -0.89186 0.00221
vn -0.84510 -0.53460 0.00234
vn -0.70637 -0.70780 -0.00829
vn -0.10963 -0.99397 0.00000
vn -0.19205 -0.98138 -0.00325
vn -0.55240 0.83358 -0.00152
vn -0.70636 0.70780 0.00875
vn -0.89055 0.45489 -0.00137
vn -0.11801 0.99301 0.00000
vn -0.19199 0.98139 -0.00486
vn -0.45489 0.89055 0.00137
vn -0.70780 0.70636 -0.00875
vn -0.98120 0.19299 -0.00326
vn -0.83358 0.55240 0.00152
vn -0.98786 0.15536 -0.00000
vn -0.98786 0.15536 0.00000
vn -0.98139 0.19198 0.00486
vn -0.00000 -0.00001 1.00000
vn -0.38268 -0.92388 0.00000
vn -0.92388 -0.38268 0.00000
# 58 vertex normals

g hat
f 1//1 2//1 3//1 
f 1//2 3//2 4//2 
f 1//3 4//3 5//3 
f 1//1 5//1 6//1 
f 5//4 4//5 7//6 
f 7//6 4//5 8//5 
f 9//7 10//7 11//7 
f 9//7 11//7 12//7 
f 9//7 12//7 13//7 
f 9//7 13//7 14//7 
f 13//8 12//9 15//10 
f 15//10 12//9 16//9 
f 17//11 18//11 19//11 
f 17//11 19//11 20//11 
f 17//11 20//11 21//11 
f 17//11 21//11 22//11 
f 21//12 20//13 23//12 
f 23//12 20//13 24//14 
f 25//15 26//15 27//15 
f 25//16 27//16 28//16 
f 25//15 28//15 29//15 
f 25//15 29//15 30//15 
f 29//17 28//18 31//17 
f 31//17 28//18 32//19 
f 1//20 6//20 33//21 
f 33//21 6//20 34//21 
f 33//21 34//21 18//22 
f 18//22 34//21 19//22 
f 25//23 30//23 35//24 
f 35//24 30//23 36//24 
f 35//24 36//24 2//25 
f 2//25 36//24 3//25 
f 9//26 14//26 37//27 
f 37//27 14//26 38//27 
f 37//27 38//27 26//28 
f 26//28 38//27 27//28 
f 11//29 39//29 40//29 
f 11//30 40//30 41//30 
f 11//30 41//30 42//30 
f 11//30 42//30 43//30 
f 11//30 43//30 44//30 
f 11//30 44//30 45//30 
f 11//30 45//30 46//30 
f 11//31 46//31 12//31 
f 40//29 39//29 47//29 
f 47//30 39//30 22//30 
f 47//30 22//30 21//30 
f 6//30 5//30 48//30 
f 6//30 48//30 49//30 
f 6//30 49//30 50//30 
f 6//30 50//30 51//30 
f 6//30 51//30 52//30 
f 6//30 52//30 53//30 
f 6//32 53//32 34//32 
f 53//32 54//32 34//32 
f 34//32 54//32 20//32 
f 34//31 20//31 19//31 
f 14//30 13//30 55//30 
f 14//30 55//30 56//30 
f 14//30 56//30 57//30 
f 14//30 57//30 58//30 
f 14//30 58//30 59//30 
f 14//30 59//30 60//30 
f 14//30 60//30 61//30 
f 14//31 61//31 38//31 
f 61//31 62//31 38//31 
f 38//33 62//33 28//33 
f 38//32 28//32 27//32 
f 63//30 58//30 64//30 
f 64//30 58//30 57//30 
f 65//14 66//21 50//14 
f 50//14 66//21 51//34 
f 66//21 67//4 51//34 
f 51//34 67//4 52//4 
f 52//4 67//4 53//35 
f 53//35 67//4 68//4 
f 24//14 20//13 69//34 
f 69//34 20//13 54//34 
f 69//34 54//34 68//4 
f 68//4 54//34 53//35 
f 70//9 40//9 71//36 
f 71//36 40//9 47//36 
f 71//36 47//36 23//12 
f 23//12 47//36 21//12 
f 41//37 40//9 72//37 
f 72//37 40//9 70//9 
f 72//37 70//9 73//38 
f 43//39 42//40 74//41 
f 41//37 72//37 42//40 
f 42//40 72//37 73//38 
f 42//40 73//38 74//41 
f 44//42 43//39 75//43 
f 75//43 43//39 74//41 
f 75//43 74//41 76//12 
f 44//42 75//43 45//12 
f 45//12 75//43 76//12 
f 45//12 76//12 77//12 
f 16//9 12//9 78//36 
f 78//36 12//9 46//36 
f 78//36 46//36 77//12 
f 77//12 46//36 45//12 
f 79//19 56//44 80//45 
f 79//19 57//18 56//44 
f 15//10 55//46 13//8 
f 15//10 80//45 55//46 
f 80//45 56//44 55//46 
f 64//47 57//18 81//47 
f 81//47 57//18 79//19 
f 81//47 79//19 82//48 
f 82//48 63//49 81//47 
f 82//48 83//50 63//49 
f 84//51 58//52 83//50 
f 84//51 85//53 58//52 
f 59//54 58//52 85//53 
f 83//50 58//52 63//49 
f 81//47 63//49 64//47 
f 59//54 85//53 60//8 
f 60//8 85//53 84//51 
f 60//8 84//51 86//55 
f 87//14 49//14 88//21 
f 88//21 49//14 48//34 
f 88//21 48//34 7//6 
f 7//6 48//34 5//4 
f 49//14 87//14 50//14 
f 50//14 87//14 65//14 
f 32//19 62//44 89//45 
f 32//19 28//18 62//44 
f 86//55 61//46 60//8 
f 86//55 89//45 61//46 
f 89//45 62//44 61//46 
f 90//24 91//17 92//17 
f 93//5 94//24 95//5 
f 96//17 94//24 92//17 
f 92//17 94//24 90//24 
f 94//24 93//5 90//24 
f 90//24 93//5 97//5 
f 96//17 92//17 98//17 
f 98//17 92//17 91//17 
f 98//17 91//17 99//17 
f 8//5 4//5 100//24 
f 100//24 4//5 101//24 
f 100//24 101//24 99//17 
f 99//17 101//24 98//17 
f 95//5 102//5 93//5 
f 93//5 102//5 103//5 
f 93//5 103//5 97//5 
f 80//30 15//30 8//30 
f 80//30 8//30 100//30 
f 80//30 100//30 99//30 
f 80//30 99//30 91//30 
f 80//30 91//30 82//30 
f 80//30 82//30 79//30 
f 88//30 7//30 16//30 
f 88//30 16//30 78//30 
f 88//30 78//30 77//30 
f 88//30 77//30 76//30 
f 88//30 76//30 65//30 
f 88//30 65//30 87//30 
f 31//30 32//30 104//30 
f 104//30 32//30 89//30 
f 104//30 89//30 103//30 
f 103//30 89//30 86//30 
f 103//30 86//30 97//30 
f 97//30 86//30 84//30 
f 97//30 84//30 90//30 
f 90//30 84//30 83//30 
f 90//30 83//30 91//30 
f 91//30 83//30 82//30 
f 16//30 7//30 15//30 
f 15//30 7//30 8//30 
f 65//30 76//30 66//30 
f 66//30 76//30 74//30 
f 66//30 74//30 67//30 
f 67//30 74//30 73//30 
f 67//30 73//30 68//30 
f 68//30 73//30 70//30 
f 68//30 70//30 69//30 
f 69//30 70//30 71//30 
f 69//30 71//30 24//30 
f 24//30 71//30 23//30 
f 98//56 94//56 96//56 
f 3//30 36//30 105//30 
f 3//29 105//29 102//29 
f 3//30 102//30 95//30 
f 3//30 95//30 94//30 
f 3//30 94//30 98//30 
f 3//31 98//31 101//31 
f 3//32 101//32 4//32 
f 36//30 30//30 105//30 
f 105//30 30//30 29//30 
f 103//5 102//5 104//24 
f 104//24 102//5 105//24 
f 104//24 105//24 31//17 
f 31//17 105//24 29//17 
f 17//57 22//57 106//36 
f 106//36 22//57 39//36 
f 106//36 39//36 10//58 
f 10//58 39//36 11//58 
# 198 faces

